<svg width="40" height="44" viewBox="0 0 40 44" fill="none" xmlns="http://www.w3.org/2000/svg">
<g filter="url(#filter0_d)">
<path d="M20.1473 6.61527C21.6167 6.62779 23.0688 6.93432 24.4178 7.51679C25.7669 8.09926 26.9857 8.94588 28.0023 10.0067C30.0665 12.1718 31.2055 15.056 31.1777 18.047C31.1499 21.0381 29.9575 23.9006 27.8536 26.027L20.9507 32.9438C20.8161 33.0886 20.6525 33.2032 20.4704 33.2801C20.2883 33.357 20.092 33.3945 19.8944 33.39C19.6965 33.3873 19.5012 33.3451 19.3198 33.2659C19.1384 33.1867 18.9747 33.0721 18.8381 32.9289L12.0543 25.908C9.98817 23.7448 8.84647 20.8617 8.87147 17.8707C8.89647 14.8797 10.0862 12.0161 12.1882 9.88774C13.2234 8.83096 14.4629 7.99586 15.8312 7.43327C17.1995 6.87068 18.668 6.59237 20.1473 6.61527Z" fill="#FC4C4C"/>
<circle cx="20" cy="18" r="5.3542" fill="white"/>
</g>
<defs>
<filter id="filter0_d" x="0.871094" y="0.614014" width="38.3072" height="42.7764" filterUnits="userSpaceOnUse" color-interpolation-filters="sRGB">
<feFlood flood-opacity="0" result="BackgroundImageFix"/>
<feColorMatrix in="SourceAlpha" type="matrix" values="0 0 0 0 0 0 0 0 0 0 0 0 0 0 0 0 0 0 127 0"/>
<feOffset dy="2"/>
<feGaussianBlur stdDeviation="4"/>
<feColorMatrix type="matrix" values="0 0 0 0 0.988235 0 0 0 0 0.298039 0 0 0 0 0.298039 0 0 0 0.25 0"/>
<feBlend mode="normal" in2="BackgroundImageFix" result="effect1_dropShadow"/>
<feBlend mode="normal" in="SourceGraphic" in2="effect1_dropShadow" result="shape"/>
</filter>
</defs>
</svg>
